<mxfile host="app.diagrams.net" modified="2021-06-02T15:37:24.296Z" agent="5.0 (Windows NT 10.0; Win64; x64) AppleWebKit/537.36 (KHTML, like Gecko) Chrome/91.0.4472.77 Safari/537.36 Edg/91.0.864.37" etag="cYI2jVHjXbgQdsiQiFKb" version="14.7.3" type="github">
  <diagram id="E7p46zmwXC4tNXd8jsAR" name="Page-1">
    <mxGraphModel dx="2352" dy="603" grid="1" gridSize="10" guides="1" tooltips="1" connect="1" arrows="1" fold="1" page="1" pageScale="1" pageWidth="850" pageHeight="1100" math="0" shadow="0">
      <root>
        <mxCell id="0" />
        <mxCell id="1" parent="0" />
        <mxCell id="-UzbbC5Cm0HuVs2AoaGU-1" value="ChiTieuDTO" style="swimlane;fontStyle=1;align=center;verticalAlign=top;childLayout=stackLayout;horizontal=1;startSize=26;horizontalStack=0;resizeParent=1;resizeParentMax=0;resizeLast=0;collapsible=1;marginBottom=0;" parent="1" vertex="1">
          <mxGeometry x="390" y="60" width="330" height="208" as="geometry" />
        </mxCell>
        <mxCell id="7xS4dSEuNHX6Ny65K52u-7" value="+ maCT: int" style="text;strokeColor=none;fillColor=none;align=left;verticalAlign=top;spacingLeft=4;spacingRight=4;overflow=hidden;rotatable=0;points=[[0,0.5],[1,0.5]];portConstraint=eastwest;" parent="-UzbbC5Cm0HuVs2AoaGU-1" vertex="1">
          <mxGeometry y="26" width="330" height="26" as="geometry" />
        </mxCell>
        <mxCell id="-UzbbC5Cm0HuVs2AoaGU-2" value="+ soTien: Double" style="text;strokeColor=none;fillColor=none;align=left;verticalAlign=top;spacingLeft=4;spacingRight=4;overflow=hidden;rotatable=0;points=[[0,0.5],[1,0.5]];portConstraint=eastwest;" parent="-UzbbC5Cm0HuVs2AoaGU-1" vertex="1">
          <mxGeometry y="52" width="330" height="26" as="geometry" />
        </mxCell>
        <mxCell id="-UzbbC5Cm0HuVs2AoaGU-5" value="+ date: Date" style="text;strokeColor=none;fillColor=none;align=left;verticalAlign=top;spacingLeft=4;spacingRight=4;overflow=hidden;rotatable=0;points=[[0,0.5],[1,0.5]];portConstraint=eastwest;" parent="-UzbbC5Cm0HuVs2AoaGU-1" vertex="1">
          <mxGeometry y="78" width="330" height="26" as="geometry" />
        </mxCell>
        <mxCell id="aImvH2YiYIwHe-dZgJxx-9" value="+ chiTiet: String" style="text;strokeColor=none;fillColor=none;align=left;verticalAlign=top;spacingLeft=4;spacingRight=4;overflow=hidden;rotatable=0;points=[[0,0.5],[1,0.5]];portConstraint=eastwest;" parent="-UzbbC5Cm0HuVs2AoaGU-1" vertex="1">
          <mxGeometry y="104" width="330" height="26" as="geometry" />
        </mxCell>
        <mxCell id="-UzbbC5Cm0HuVs2AoaGU-3" value="" style="line;strokeWidth=1;fillColor=none;align=left;verticalAlign=middle;spacingTop=-1;spacingLeft=3;spacingRight=3;rotatable=0;labelPosition=right;points=[];portConstraint=eastwest;" parent="-UzbbC5Cm0HuVs2AoaGU-1" vertex="1">
          <mxGeometry y="130" width="330" height="8" as="geometry" />
        </mxCell>
        <mxCell id="aImvH2YiYIwHe-dZgJxx-7" value="+ ChiTieuDTO();" style="text;strokeColor=none;fillColor=none;align=left;verticalAlign=top;spacingLeft=4;spacingRight=4;overflow=hidden;rotatable=0;points=[[0,0.5],[1,0.5]];portConstraint=eastwest;" parent="-UzbbC5Cm0HuVs2AoaGU-1" vertex="1">
          <mxGeometry y="138" width="330" height="26" as="geometry" />
        </mxCell>
        <mxCell id="34Bbni980nFAeHRUJE3C-2" value="+ ChiTieuDTO(int maCT, double soTien, int ngay, int thang,&#xa; int nam, String chiTiet);&#xa;" style="text;strokeColor=none;fillColor=none;align=left;verticalAlign=top;spacingLeft=4;spacingRight=4;overflow=hidden;rotatable=0;points=[[0,0.5],[1,0.5]];portConstraint=eastwest;" parent="-UzbbC5Cm0HuVs2AoaGU-1" vertex="1">
          <mxGeometry y="164" width="330" height="44" as="geometry" />
        </mxCell>
        <mxCell id="-UzbbC5Cm0HuVs2AoaGU-15" value="ChiTieuBLL" style="swimlane;fontStyle=1;align=center;verticalAlign=top;childLayout=stackLayout;horizontal=1;startSize=26;horizontalStack=0;resizeParent=1;resizeParentMax=0;resizeLast=0;collapsible=1;marginBottom=0;" parent="1" vertex="1">
          <mxGeometry x="70" y="115" width="220" height="150" as="geometry" />
        </mxCell>
        <mxCell id="-UzbbC5Cm0HuVs2AoaGU-16" value="+ ChiTieuDAL" style="text;strokeColor=none;fillColor=none;align=left;verticalAlign=top;spacingLeft=4;spacingRight=4;overflow=hidden;rotatable=0;points=[[0,0.5],[1,0.5]];portConstraint=eastwest;" parent="-UzbbC5Cm0HuVs2AoaGU-15" vertex="1">
          <mxGeometry y="26" width="220" height="26" as="geometry" />
        </mxCell>
        <mxCell id="aImvH2YiYIwHe-dZgJxx-5" value="- gioiHanChiTieu: Double" style="text;strokeColor=none;fillColor=none;align=left;verticalAlign=top;spacingLeft=4;spacingRight=4;overflow=hidden;rotatable=0;points=[[0,0.5],[1,0.5]];portConstraint=eastwest;" parent="-UzbbC5Cm0HuVs2AoaGU-15" vertex="1">
          <mxGeometry y="52" width="220" height="26" as="geometry" />
        </mxCell>
        <mxCell id="-UzbbC5Cm0HuVs2AoaGU-17" value="" style="line;strokeWidth=1;fillColor=none;align=left;verticalAlign=middle;spacingTop=-1;spacingLeft=3;spacingRight=3;rotatable=0;labelPosition=right;points=[];portConstraint=eastwest;" parent="-UzbbC5Cm0HuVs2AoaGU-15" vertex="1">
          <mxGeometry y="78" width="220" height="8" as="geometry" />
        </mxCell>
        <mxCell id="7xS4dSEuNHX6Ny65K52u-8" value="+ kiemTraChiTieu_Nam(int nam): void" style="text;strokeColor=none;fillColor=none;align=left;verticalAlign=top;spacingLeft=4;spacingRight=4;overflow=hidden;rotatable=0;points=[[0,0.5],[1,0.5]];portConstraint=eastwest;" parent="-UzbbC5Cm0HuVs2AoaGU-15" vertex="1">
          <mxGeometry y="86" width="220" height="26" as="geometry" />
        </mxCell>
        <mxCell id="7xS4dSEuNHX6Ny65K52u-9" value="+ kiemTraChiTieu_Thang(int nam,&#xa; int thang): void" style="text;strokeColor=none;fillColor=none;align=left;verticalAlign=top;spacingLeft=4;spacingRight=4;overflow=hidden;rotatable=0;points=[[0,0.5],[1,0.5]];portConstraint=eastwest;" parent="-UzbbC5Cm0HuVs2AoaGU-15" vertex="1">
          <mxGeometry y="112" width="220" height="38" as="geometry" />
        </mxCell>
        <mxCell id="M2NKCT_LfHTm3o3uXUaF-5" value="DBUtils" style="swimlane;fontStyle=1;align=center;verticalAlign=top;childLayout=stackLayout;horizontal=1;startSize=26;horizontalStack=0;resizeParent=1;resizeParentMax=0;resizeLast=0;collapsible=1;marginBottom=0;" parent="1" vertex="1">
          <mxGeometry x="70" y="632" width="280" height="112" as="geometry" />
        </mxCell>
        <mxCell id="M2NKCT_LfHTm3o3uXUaF-6" value="- conn: Connection" style="text;strokeColor=none;fillColor=none;align=left;verticalAlign=top;spacingLeft=4;spacingRight=4;overflow=hidden;rotatable=0;points=[[0,0.5],[1,0.5]];portConstraint=eastwest;" parent="M2NKCT_LfHTm3o3uXUaF-5" vertex="1">
          <mxGeometry y="26" width="280" height="26" as="geometry" />
        </mxCell>
        <mxCell id="M2NKCT_LfHTm3o3uXUaF-7" value="" style="line;strokeWidth=1;fillColor=none;align=left;verticalAlign=middle;spacingTop=-1;spacingLeft=3;spacingRight=3;rotatable=0;labelPosition=right;points=[];portConstraint=eastwest;" parent="M2NKCT_LfHTm3o3uXUaF-5" vertex="1">
          <mxGeometry y="52" width="280" height="8" as="geometry" />
        </mxCell>
        <mxCell id="M2NKCT_LfHTm3o3uXUaF-17" value="+ ConnectDB(): ConnectDB" style="text;strokeColor=none;fillColor=none;align=left;verticalAlign=top;spacingLeft=4;spacingRight=4;overflow=hidden;rotatable=0;points=[[0,0.5],[1,0.5]];portConstraint=eastwest;" parent="M2NKCT_LfHTm3o3uXUaF-5" vertex="1">
          <mxGeometry y="60" width="280" height="26" as="geometry" />
        </mxCell>
        <mxCell id="M2NKCT_LfHTm3o3uXUaF-8" value="+ createCon(): Connection" style="text;strokeColor=none;fillColor=none;align=left;verticalAlign=top;spacingLeft=4;spacingRight=4;overflow=hidden;rotatable=0;points=[[0,0.5],[1,0.5]];portConstraint=eastwest;" parent="M2NKCT_LfHTm3o3uXUaF-5" vertex="1">
          <mxGeometry y="86" width="280" height="26" as="geometry" />
        </mxCell>
        <mxCell id="M2NKCT_LfHTm3o3uXUaF-9" value="QLCTGUI" style="swimlane;fontStyle=1;childLayout=stackLayout;horizontal=1;startSize=26;fillColor=none;horizontalStack=0;resizeParent=1;resizeParentMax=0;resizeLast=0;collapsible=1;marginBottom=0;" parent="1" vertex="1">
          <mxGeometry x="70" y="382" width="410" height="208" as="geometry" />
        </mxCell>
        <mxCell id="M2NKCT_LfHTm3o3uXUaF-11" value="+ QLCTGUI(): QLCTGUI" style="text;strokeColor=none;fillColor=none;align=left;verticalAlign=top;spacingLeft=4;spacingRight=4;overflow=hidden;rotatable=0;points=[[0,0.5],[1,0.5]];portConstraint=eastwest;" parent="M2NKCT_LfHTm3o3uXUaF-9" vertex="1">
          <mxGeometry y="26" width="410" height="26" as="geometry" />
        </mxCell>
        <mxCell id="M2NKCT_LfHTm3o3uXUaF-10" value="+ taoTable(): void" style="text;strokeColor=none;fillColor=none;align=left;verticalAlign=top;spacingLeft=4;spacingRight=4;overflow=hidden;rotatable=0;points=[[0,0.5],[1,0.5]];portConstraint=eastwest;" parent="M2NKCT_LfHTm3o3uXUaF-9" vertex="1">
          <mxGeometry y="52" width="410" height="26" as="geometry" />
        </mxCell>
        <mxCell id="M2NKCT_LfHTm3o3uXUaF-12" value="- btThemActionPerformed(java.awt.event.ActionEvent evt): void" style="text;strokeColor=none;fillColor=none;align=left;verticalAlign=top;spacingLeft=4;spacingRight=4;overflow=hidden;rotatable=0;points=[[0,0.5],[1,0.5]];portConstraint=eastwest;" parent="M2NKCT_LfHTm3o3uXUaF-9" vertex="1">
          <mxGeometry y="78" width="410" height="26" as="geometry" />
        </mxCell>
        <mxCell id="M2NKCT_LfHTm3o3uXUaF-15" value="- btXuatActionPerformed(java.awt.event.ActionEvent evt): void" style="text;strokeColor=none;fillColor=none;align=left;verticalAlign=top;spacingLeft=4;spacingRight=4;overflow=hidden;rotatable=0;points=[[0,0.5],[1,0.5]];portConstraint=eastwest;" parent="M2NKCT_LfHTm3o3uXUaF-9" vertex="1">
          <mxGeometry y="104" width="410" height="26" as="geometry" />
        </mxCell>
        <mxCell id="M2NKCT_LfHTm3o3uXUaF-14" value="- btSuaActionPerformed(java.awt.event.ActionEvent evt): void" style="text;strokeColor=none;fillColor=none;align=left;verticalAlign=top;spacingLeft=4;spacingRight=4;overflow=hidden;rotatable=0;points=[[0,0.5],[1,0.5]];portConstraint=eastwest;" parent="M2NKCT_LfHTm3o3uXUaF-9" vertex="1">
          <mxGeometry y="130" width="410" height="26" as="geometry" />
        </mxCell>
        <mxCell id="M2NKCT_LfHTm3o3uXUaF-13" value="- btXoaActionPerformed(java.awt.event.ActionEvent evt): void" style="text;strokeColor=none;fillColor=none;align=left;verticalAlign=top;spacingLeft=4;spacingRight=4;overflow=hidden;rotatable=0;points=[[0,0.5],[1,0.5]];portConstraint=eastwest;" parent="M2NKCT_LfHTm3o3uXUaF-9" vertex="1">
          <mxGeometry y="156" width="410" height="26" as="geometry" />
        </mxCell>
        <mxCell id="M2NKCT_LfHTm3o3uXUaF-16" value="- tblSPMouseClicked(java.awt.event.MouseEvent evt): void" style="text;strokeColor=none;fillColor=none;align=left;verticalAlign=top;spacingLeft=4;spacingRight=4;overflow=hidden;rotatable=0;points=[[0,0.5],[1,0.5]];portConstraint=eastwest;" parent="M2NKCT_LfHTm3o3uXUaF-9" vertex="1">
          <mxGeometry y="182" width="410" height="26" as="geometry" />
        </mxCell>
        <mxCell id="M2NKCT_LfHTm3o3uXUaF-18" value="ChiTieuDAL" style="swimlane;fontStyle=1;childLayout=stackLayout;horizontal=1;startSize=26;fillColor=none;horizontalStack=0;resizeParent=1;resizeParentMax=0;resizeLast=0;collapsible=1;marginBottom=0;" parent="1" vertex="1">
          <mxGeometry x="-300" y="140" width="280" height="104" as="geometry" />
        </mxCell>
        <mxCell id="M2NKCT_LfHTm3o3uXUaF-19" value="+ field: type" style="text;strokeColor=none;fillColor=none;align=left;verticalAlign=top;spacingLeft=4;spacingRight=4;overflow=hidden;rotatable=0;points=[[0,0.5],[1,0.5]];portConstraint=eastwest;" parent="M2NKCT_LfHTm3o3uXUaF-18" vertex="1">
          <mxGeometry y="26" width="280" height="26" as="geometry" />
        </mxCell>
        <mxCell id="M2NKCT_LfHTm3o3uXUaF-20" value="+ field: type" style="text;strokeColor=none;fillColor=none;align=left;verticalAlign=top;spacingLeft=4;spacingRight=4;overflow=hidden;rotatable=0;points=[[0,0.5],[1,0.5]];portConstraint=eastwest;" parent="M2NKCT_LfHTm3o3uXUaF-18" vertex="1">
          <mxGeometry y="52" width="280" height="26" as="geometry" />
        </mxCell>
        <mxCell id="M2NKCT_LfHTm3o3uXUaF-21" value="+ field: type" style="text;strokeColor=none;fillColor=none;align=left;verticalAlign=top;spacingLeft=4;spacingRight=4;overflow=hidden;rotatable=0;points=[[0,0.5],[1,0.5]];portConstraint=eastwest;" parent="M2NKCT_LfHTm3o3uXUaF-18" vertex="1">
          <mxGeometry y="78" width="280" height="26" as="geometry" />
        </mxCell>
      </root>
    </mxGraphModel>
  </diagram>
</mxfile>
